<svg width="36" height="36" viewBox="0 0 36 36" fill="none" xmlns="http://www.w3.org/2000/svg">
<path d="M32.8328 27.1066V27.1063V8.89369V8.89341C32.8311 7.3753 32.2274 5.91984 31.154 4.84627C30.0807 3.77269 28.6253 3.16865 27.1072 3.16662H27.1069H8.89369L8.89338 3.16662C7.37517 3.16849 5.91969 3.77247 4.84621 4.84606C3.77272 5.91965 3.1689 7.3752 3.16719 8.89341V8.89369L3.16719 27.1063L3.16719 27.1066C3.1689 28.6248 3.77272 30.0804 4.84621 31.1539C5.91969 32.2275 7.37517 32.8315 8.89338 32.8334H8.89369H27.1069H27.1072C28.6253 32.8314 30.0807 32.2273 31.154 31.1537C32.2274 30.0802 32.8311 28.6247 32.8328 27.1066ZM2.78447 2.78447C4.40496 1.16398 6.6021 0.252497 8.89382 0.25H27.1067C29.3984 0.252497 31.5955 1.164 33.2159 2.7845C34.8363 4.40504 35.7477 6.60223 35.75 8.89394V27.1061C35.7477 29.3978 34.8363 31.595 33.2159 33.2155C31.5954 34.836 29.3983 35.7475 27.1066 35.75H8.89396C6.60219 35.7475 4.405 34.8361 2.78447 33.2155C1.16398 31.595 0.252497 29.3979 0.25 27.1062V8.89382C0.252497 6.6021 1.16398 4.40496 2.78447 2.78447Z" fill="#4D81EA" stroke="white" stroke-width="0.5"/>
<path d="M17.9998 23.4059H18.0001C19.4334 23.4046 20.8077 22.8347 21.8213 21.8212C22.8348 20.8078 23.4049 19.4336 23.4063 18.0002V18C23.4063 16.9308 23.0893 15.8857 22.4953 14.9967C21.9013 14.1077 21.0571 13.4148 20.0693 13.0057C19.0815 12.5965 17.9946 12.4894 16.946 12.6979C15.8974 12.9065 14.9341 13.4213 14.1781 14.1773C13.422 14.9332 12.9071 15.8964 12.6985 16.945C12.4898 17.9936 12.5968 19.0805 13.0059 20.0683C13.4149 21.0561 14.1077 21.9004 14.9966 22.4945C15.8856 23.0886 16.9307 23.4057 17.9998 23.4059ZM13.3763 11.0804C14.7448 10.1658 16.3538 9.67763 17.9997 9.67749C20.2064 9.67984 22.322 10.5574 23.8823 12.1177C25.4427 13.678 26.3205 15.7936 26.3229 18.0003C26.3229 19.6462 25.8348 21.2551 24.9204 22.6237C24.0059 23.9923 22.7061 25.059 21.1854 25.6889C19.6647 26.3189 17.9914 26.4837 16.377 26.1626C14.7626 25.8415 13.2797 25.0489 12.1157 23.8851C10.9518 22.7212 10.1591 21.2383 9.8379 19.624C9.51672 18.0096 9.68145 16.3362 10.3113 14.8155C10.9411 13.2947 12.0077 11.9949 13.3763 11.0804Z" fill="#4D81EA" stroke="white" stroke-width="0.5"/>
<path d="M25.791 7.38135C26.1262 7.15744 26.5204 7.03799 26.9235 7.03809C27.464 7.03822 27.9823 7.25302 28.3645 7.63525C28.7466 8.01748 28.9613 8.53584 28.9613 9.07634C28.9613 9.47948 28.8417 9.87358 28.6177 10.2088C28.3937 10.544 28.0754 10.8052 27.7029 10.9595C27.3304 11.1137 26.9206 11.1541 26.5252 11.0754C26.1298 10.9967 25.7666 10.8025 25.4816 10.5174C25.1965 10.2323 25.0025 9.86909 24.9239 9.47367C24.8453 9.07826 24.8857 8.66842 25.0401 8.29598C25.1944 7.92355 25.4557 7.60525 25.791 7.38135Z" fill="#4D81EA" stroke="white" stroke-width="0.5"/>
</svg>
