<svg width="36" height="36" viewBox="0 0 36 36" fill="none" xmlns="http://www.w3.org/2000/svg">
<path d="M0.5 10.6364C0.5 5.04614 5.04614 0.5 10.6364 0.5H25.3636C30.9539 0.5 35.5 5.04614 35.5 10.6364V25.3636C35.5 30.9539 30.9539 35.5 25.3636 35.5H10.6364C5.04614 35.5 0.5 30.9539 0.5 25.3636V10.6364ZM29.9545 8.18182C29.9545 7.00568 28.9943 6.04545 27.8182 6.04545C26.642 6.04545 25.6818 7.00568 25.6818 8.18182C25.6818 9.35796 26.642 10.3182 27.8182 10.3182C28.9943 10.3182 29.9545 9.35796 29.9545 8.18182ZM27.5 18C27.5 12.7575 23.2425 8.5 18 8.5C12.7575 8.5 8.5 12.7575 8.5 18C8.5 23.2425 12.7575 27.5 18 27.5C23.2425 27.5 27.5 23.2425 27.5 18ZM11.1364 18C11.1364 14.218 14.218 11.1364 18 11.1364C21.782 11.1364 24.8636 14.218 24.8636 18C24.8636 21.782 21.782 24.8636 18 24.8636C14.218 24.8636 11.1364 21.782 11.1364 18Z" stroke="#4D81EA"/>
</svg>
