<svg width="25" height="25" viewBox="0 0 25 25" fill="none" xmlns="http://www.w3.org/2000/svg">
<path d="M20.912 10.1875C21.6425 10.1875 22.287 10.832 22.287 11.5625V12.9375C22.287 13.7109 21.6425 14.3125 20.912 14.3125H14.7245V20.5C14.7245 21.2734 14.08 21.875 13.3495 21.875H11.9745C11.2011 21.875 10.5995 21.2734 10.5995 20.5V14.3125H4.41204C3.6386 14.3125 3.03704 13.7109 3.03704 12.9375V11.5625C3.03704 10.832 3.6386 10.1875 4.41204 10.1875H10.5995V4C10.5995 3.26953 11.2011 2.625 11.9745 2.625H13.3495C14.08 2.625 14.7245 3.26953 14.7245 4V10.1875H20.912Z" fill="#222222"/>
</svg>
