<svg width="36" height="37" viewBox="0 0 36 37" fill="none" xmlns="http://www.w3.org/2000/svg">
<path d="M4.28571 0C1.92899 0 0 1.92899 0 4.28571V31.7143C0 34.071 1.92899 36 4.28571 36H18.7132C18.8057 36.0153 18.9002 36.0153 18.9927 36H23.856C23.9486 36.0153 24.043 36.0153 24.1356 36H31.7143C34.071 36 36 34.071 36 31.7143V4.28571C36 1.92899 34.071 0 31.7143 0H4.28571ZM4.28571 1.71429H31.7143C33.1444 1.71429 34.2857 2.85559 34.2857 4.28571V31.7143C34.2857 33.1444 33.1444 34.2857 31.7143 34.2857H24.8571V22.2857H28.1317L29.332 16.2857H24.8571V14.5714C24.8571 14.0936 24.9026 14.0562 25.0631 13.952C25.2235 13.8478 25.7193 13.7143 26.5714 13.7143H29.1429V8.88783L28.654 8.65513C28.654 8.65513 26.6851 7.71429 24 7.71429C22.0714 7.71429 20.4871 8.48267 19.4732 9.75C18.4594 11.0173 18 12.7143 18 14.5714V16.2857H15.4286V22.2857H18V34.2857H4.28571C2.85559 34.2857 1.71429 33.1444 1.71429 31.7143V4.28571C1.71429 2.85559 2.85559 1.71429 4.28571 1.71429ZM24 9.42857C25.7821 9.42857 26.9035 9.82153 27.4286 10.0296V12H26.5714C25.585 12 24.7945 12.0816 24.1289 12.514C23.4633 12.9463 23.1429 13.767 23.1429 14.5714V18H27.2394L26.7254 20.5714H23.1429V34.2857H19.7143V20.5714H17.1429V18H19.7143V14.5714C19.7143 13 20.1121 11.697 20.8125 10.8214C21.5129 9.9459 22.5 9.42857 24 9.42857Z" fill="#4D81EA"/>
</svg>
